<svg viewBox="0 0 18 18" fill="none" xmlns="http://www.w3.org/2000/svg">
    <path
        d="M8.56975 11.284C10.0688 11.284 11.284 10.0688 11.284 8.56975C11.284 7.0707 10.0688 5.85547 8.56975 5.85547C7.0707 5.85547 5.85547 7.0707 5.85547 8.56975C5.85547 10.0688 7.0707 11.284 8.56975 11.284Z"
        fill="white" />
    <path
        d="M11.9628 0.427734H5.17706C2.55845 0.427734 0.427734 2.55913 0.427734 5.17841V11.9641C0.427734 14.5827 2.55913 16.7134 5.17841 16.7134H11.9641C14.5827 16.7134 16.7134 14.5821 16.7134 11.9628V5.17706C16.7134 2.55845 14.5821 0.427734 11.9628 0.427734ZM8.57059 12.642C6.3252 12.642 4.49916 10.816 4.49916 8.57059C4.49916 6.3252 6.3252 4.49916 8.57059 4.49916C10.816 4.49916 12.642 6.3252 12.642 8.57059C12.642 10.816 10.816 12.642 8.57059 12.642ZM13.3206 4.49916C12.946 4.49916 12.642 4.19516 12.642 3.82059C12.642 3.44602 12.946 3.14202 13.3206 3.14202C13.6952 3.14202 13.9992 3.44602 13.9992 3.82059C13.9992 4.19516 13.6952 4.49916 13.3206 4.49916Z"
        fill="white" />
</svg>