<svg viewBox="0 0 20 20" fill="none" xmlns="http://www.w3.org/2000/svg">
    <path fill-rule="evenodd" clip-rule="evenodd"
        d="M7.85746 7.47425H10.9525V9.01592C11.3983 8.12925 12.5416 7.33258 14.2591 7.33258C17.5516 7.33258 18.3333 9.09758 18.3333 12.3359V18.3334H15V13.0734C15 11.2292 14.5541 10.1892 13.4191 10.1892C11.845 10.1892 11.1908 11.3101 11.1908 13.0726V18.3334H7.85746V7.47425ZM2.14163 18.1917H5.47496V7.33258H2.14163V18.1917ZM5.95246 3.79175C5.95258 4.07114 5.89717 4.34778 5.78945 4.60557C5.68172 4.86336 5.52384 5.09718 5.32496 5.29342C5.12549 5.49185 4.88888 5.64903 4.62864 5.75598C4.36841 5.86294 4.08965 5.91757 3.80829 5.91675C3.24129 5.91547 2.69739 5.69199 2.29329 5.29425C2.09521 5.09729 1.9379 4.8632 1.83037 4.60539C1.72284 4.34757 1.6672 4.07109 1.66663 3.79175C1.66663 3.22758 1.89163 2.68758 2.29413 2.28925C2.69721 1.88998 3.24177 1.66623 3.80913 1.66675C4.37746 1.66675 4.92246 1.89092 5.32496 2.28925C5.72746 2.68758 5.95246 3.22758 5.95246 3.79175Z"
        fill="white" />
</svg>