<svg viewBox="0 0 22 22" fill="none" xmlns="http://www.w3.org/2000/svg">
    <path
        d="M15.2167 5.335C14.5902 4.61957 14.2449 3.70095 14.245 2.75H11.4125V14.1167C11.3911 14.7319 11.1316 15.3148 10.6886 15.7424C10.2457 16.1699 9.65399 16.4087 9.03835 16.4083C7.73669 16.4083 6.65502 15.345 6.65502 14.025C6.65502 12.4483 8.17669 11.2658 9.74419 11.7517V8.855C6.58169 8.43333 3.81335 10.89 3.81335 14.025C3.81335 17.0775 6.34335 19.25 9.02919 19.25C11.9075 19.25 14.245 16.9125 14.245 14.025V8.25917C15.3936 9.08403 16.7726 9.52659 18.1867 9.52417V6.69167C18.1867 6.69167 16.4634 6.77417 15.2167 5.335Z"
        fill="white" />
</svg>